<svg xmlns="http://www.w3.org/2000/svg" version="1.1" xmlns:xlink="http://www.w3.org/1999/xlink" width="512" height="512" x="0" y="0" viewBox="0 0 512 512" style="enable-background:new 0 0 512 512" xml:space="preserve" class=""><g><linearGradient id="a" x1=".003" x2="511.997" y1="256" y2="256" gradientUnits="userSpaceOnUse"><stop offset="0" stop-color="#e921c3"></stop><stop offset=".102" stop-color="#cd29c0"></stop><stop offset=".334" stop-color="#933ab8"></stop><stop offset=".548" stop-color="#6548b3"></stop><stop offset=".738" stop-color="#4452ae"></stop><stop offset=".895" stop-color="#2f58ac"></stop><stop offset="1" stop-color="#285aab"></stop></linearGradient><path fill="url(#a)" d="M256 0C114.8 0 0 114.8 0 256s114.8 256 256 256 256-114.8 256-256S397.2 0 256 0zm0 480C132.5 480 32 379.5 32 256S132.5 32 256 32s224 100.5 224 224-100.5 224-224 224zm-16-262.6v-73.9c0-8.8 7.2-16 16-16s16 7.2 16 16v73.9c0 8.8-7.2 16-16 16s-16-7.2-16-16zm126 57.1c0 60.7-49.4 110-110 110-60.7 0-110-49.4-110-110 0-37.4 18.7-71.9 50.1-92.2 7.4-4.8 17.3-2.7 22.1 4.7s2.7 17.3-4.7 22.1C191.2 223.5 178 248 178 274.5c0 43 35 78 78 78s78-35 78-78c0-26.5-13.3-51-35.5-65.4-7.4-4.8-9.5-14.7-4.7-22.1s14.7-9.5 22.1-4.7c31.4 20.3 50.1 54.8 50.1 92.2z" opacity="1" data-original="url(#a)" class=""></path></g></svg>